<?xml version="1.0" standalone="no"?>
<!DOCTYPE svg PUBLIC "-//W3C//DTD SVG 20010904//EN"
 "http://www.w3.org/TR/2001/REC-SVG-20010904/DTD/svg10.dtd">
<svg version="1.0" xmlns="http://www.w3.org/2000/svg"
 width="346.000000pt" height="72.000000pt" viewBox="0 0 346.000000 72.000000"
 preserveAspectRatio="xMidYMid meet">

<g transform="translate(0.000000,72.000000) scale(0.100000,-0.100000)"
fill="#000000" stroke="none">
<path d="M1423 703 c-13 -2 -23 -8 -23 -13 0 -19 137 -27 205 -11 l30 7 -40
12 c-39 11 -126 14 -172 5z"/>
<path d="M1325 656 c-15 -11 -15 -13 2 -28 33 -29 122 -47 208 -43 100 6 105
6 105 17 0 4 8 8 18 8 10 0 26 6 36 13 16 12 16 14 2 26 -13 11 -27 10 -83 -4
-76 -19 -160 -16 -230 9 -33 11 -45 12 -58 2z"/>
<path d="M1262 592 c3 -9 10 -16 17 -14 7 1 10 -2 6 -8 -4 -6 22 -24 62 -43
62 -29 77 -32 164 -32 53 0 107 5 120 11 13 7 38 17 54 23 17 6 44 22 60 35
27 22 28 25 12 32 -12 4 -33 -1 -55 -14 -91 -50 -248 -54 -348 -7 -77 35 -96
39 -92 17z"/>
<path d="M122 574 c-22 -15 -22 -19 -22 -233 0 -155 3 -220 12 -229 9 -9 74
-12 229 -12 265 0 249 -10 249 155 0 73 -4 115 -12 123 -8 8 -60 12 -170 12
l-158 0 0 -45 0 -45 114 0 114 0 4 -50 3 -50 -147 0 -148 0 0 150 0 150 193 2
192 3 3 43 3 42 -218 0 c-182 0 -222 -3 -241 -16z"/>
<path d="M662 574 c-22 -15 -22 -20 -22 -222 0 -172 3 -211 16 -230 15 -22 19
-22 245 -22 l229 0 0 45 0 45 -185 0 -185 0 0 55 0 55 165 0 165 0 0 40 0 40
-165 0 -165 0 0 60 0 60 185 0 185 0 0 45 0 45 -223 0 c-185 0 -226 -3 -245
-16z"/>
<path d="M1925 578 c-3 -8 -4 -117 -3 -243 l3 -230 52 -3 53 -3 2 173 3 173
59 -173 58 -173 36 3 35 3 56 165 56 165 3 -168 2 -168 31 3 c27 3 34 10 55
62 22 55 24 73 24 227 0 203 1 201 -103 197 l-70 -3 -41 -129 c-23 -71 -46
-131 -52 -133 -7 -2 -32 53 -60 129 l-49 133 -73 3 c-53 2 -74 -1 -77 -10z"/>
<path d="M2617 528 c-14 -35 -59 -145 -101 -246 l-75 -183 61 3 61 3 65 168
c36 92 68 167 71 167 6 0 69 -147 97 -222 6 -16 -2 -18 -84 -18 l-90 0 -16
-47 c-9 -26 -16 -48 -16 -50 0 -2 55 -3 123 -3 l123 0 41 58 41 59 -83 184
-84 184 -54 3 -55 3 -25 -63z"/>
<path d="M2903 577 c2 -7 40 -61 83 -121 89 -124 91 -97 -16 -241 -36 -50 -70
-96 -74 -102 -5 -10 12 -13 76 -13 l83 0 51 65 51 64 49 -64 48 -65 78 0 c43
0 78 3 78 6 0 5 -108 158 -161 230 -5 6 26 57 76 125 46 63 85 117 85 122 0 4
-36 7 -80 7 l-79 0 -43 -60 c-23 -33 -45 -60 -49 -60 -4 0 -29 27 -55 60 l-47
60 -80 0 c-60 0 -78 -3 -74 -13z"/>
<path d="M1220 546 c0 -18 70 -81 117 -104 106 -53 235 -55 337 -7 65 31 126
80 126 101 0 20 -10 17 -39 -9 -67 -61 -230 -93 -342 -67 -56 13 -147 59 -169
85 -16 19 -30 19 -30 1z"/>
<path d="M1195 490 c-11 -18 90 -112 154 -143 61 -29 74 -32 166 -32 95 0 105
2 168 34 69 35 162 121 139 129 -7 2 -25 -8 -40 -24 -15 -15 -56 -41 -92 -58
-61 -29 -73 -31 -175 -31 -102 0 -115 2 -175 31 -36 17 -82 47 -103 66 -20 20
-39 32 -42 28z"/>
<path d="M1170 424 c0 -11 50 -74 89 -110 19 -18 58 -44 86 -58 157 -74 331
-42 446 82 64 69 63 86 -1 28 -90 -80 -229 -117 -349 -92 -87 18 -153 52 -219
111 -29 26 -52 43 -52 39z"/>
<path d="M1170 345 c-1 -37 100 -144 170 -180 150 -76 314 -50 437 71 36 36
63 67 59 71 -3 4 -21 -7 -39 -24 -110 -104 -271 -136 -423 -85 -58 20 -165 95
-188 132 -8 14 -16 21 -16 15z"/>
<path d="M1240 175 c28 -35 75 -74 125 -102 45 -25 59 -28 150 -28 114 0 148
13 225 85 34 32 38 38 15 24 -93 -56 -187 -80 -277 -70 -68 7 -178 49 -221 85
-21 17 -27 19 -17 6z"/>
</g>
</svg>
